<mxfile host="app.diagrams.net" agent="Mozilla/5.0 (Windows NT 10.0; Win64; x64) AppleWebKit/537.36 (KHTML, like Gecko) Chrome/131.0.0.0 Safari/537.36" version="26.0.6">
  <diagram name="Sida-1" id="iCNXh-kyp9YEgvofzy4t">
    <mxGraphModel dx="1050" dy="557" grid="1" gridSize="10" guides="1" tooltips="1" connect="1" arrows="1" fold="1" page="1" pageScale="1" pageWidth="827" pageHeight="1169" background="none" math="0" shadow="0">
      <root>
        <mxCell id="0" />
        <mxCell id="1" parent="0" />
        <mxCell id="PMYmBUmIUMcdazAJRNt9-28" style="edgeStyle=orthogonalEdgeStyle;rounded=0;orthogonalLoop=1;jettySize=auto;html=1;entryX=0.5;entryY=0;entryDx=0;entryDy=0;fontFamily=Helvetica;fontSize=18;fontColor=default;" parent="1" source="PMYmBUmIUMcdazAJRNt9-10" target="PMYmBUmIUMcdazAJRNt9-15" edge="1">
          <mxGeometry relative="1" as="geometry">
            <Array as="points">
              <mxPoint x="420" y="140" />
              <mxPoint x="420" y="140" />
            </Array>
          </mxGeometry>
        </mxCell>
        <mxCell id="PMYmBUmIUMcdazAJRNt9-10" value="D-Glukos" style="rounded=0;whiteSpace=wrap;html=1;align=center;verticalAlign=middle;fontFamily=Helvetica;fontSize=18;fontColor=default;fillColor=none;gradientColor=none;" parent="1" vertex="1">
          <mxGeometry x="320" y="40" width="200" height="40" as="geometry" />
        </mxCell>
        <mxCell id="PMYmBUmIUMcdazAJRNt9-12" value="Hexokinas&amp;nbsp;" style="rounded=1;whiteSpace=wrap;html=1;align=center;verticalAlign=middle;fontFamily=Helvetica;fontSize=18;fillColor=#dae8fc;labelBackgroundColor=none;strokeColor=#7EA6E0;" parent="1" vertex="1">
          <mxGeometry x="260" y="200" width="100" height="40" as="geometry" />
        </mxCell>
        <mxCell id="PMYmBUmIUMcdazAJRNt9-47" value="" style="edgeStyle=orthogonalEdgeStyle;rounded=0;orthogonalLoop=1;jettySize=auto;html=1;fontFamily=Helvetica;fontSize=18;fontColor=default;" parent="1" source="PMYmBUmIUMcdazAJRNt9-15" target="PMYmBUmIUMcdazAJRNt9-46" edge="1">
          <mxGeometry relative="1" as="geometry" />
        </mxCell>
        <mxCell id="PMYmBUmIUMcdazAJRNt9-15" value="Glukos-6-fosfat" style="rounded=0;whiteSpace=wrap;html=1;align=center;verticalAlign=middle;fontFamily=Helvetica;fontSize=18;fontColor=default;fillColor=none;gradientColor=none;" parent="1" vertex="1">
          <mxGeometry x="320" y="280" width="200" height="40" as="geometry" />
        </mxCell>
        <mxCell id="PMYmBUmIUMcdazAJRNt9-39" value="&lt;font style=&quot;font-size: 16px;&quot;&gt;ATP&lt;/font&gt;" style="text;html=1;align=center;verticalAlign=middle;resizable=0;points=[];autosize=1;strokeColor=none;fillColor=none;fontFamily=Helvetica;fontSize=18;fontColor=default;" parent="1" vertex="1">
          <mxGeometry x="485" y="120" width="50" height="40" as="geometry" />
        </mxCell>
        <mxCell id="PMYmBUmIUMcdazAJRNt9-40" value="&lt;font style=&quot;font-size: 16px;&quot;&gt;ADP&lt;/font&gt;" style="text;html=1;align=center;verticalAlign=middle;resizable=0;points=[];autosize=1;strokeColor=none;fillColor=none;fontFamily=Helvetica;fontSize=18;fontColor=default;" parent="1" vertex="1">
          <mxGeometry x="480" y="200" width="60" height="40" as="geometry" />
        </mxCell>
        <mxCell id="PMYmBUmIUMcdazAJRNt9-41" value="" style="endArrow=classic;html=1;rounded=0;fontFamily=Helvetica;fontSize=18;fontColor=default;exitX=-0.024;exitY=0.525;exitDx=0;exitDy=0;exitPerimeter=0;curved=1;entryX=0.02;entryY=0.565;entryDx=0;entryDy=0;entryPerimeter=0;" parent="1" source="PMYmBUmIUMcdazAJRNt9-39" target="PMYmBUmIUMcdazAJRNt9-40" edge="1">
          <mxGeometry width="50" height="50" relative="1" as="geometry">
            <mxPoint x="359.6000000000001" y="150.89999999999995" as="sourcePoint" />
            <mxPoint x="440" y="240" as="targetPoint" />
            <Array as="points">
              <mxPoint x="360" y="180" />
            </Array>
          </mxGeometry>
        </mxCell>
        <mxCell id="PMYmBUmIUMcdazAJRNt9-46" value="Fruktos-6-fosfat" style="rounded=0;whiteSpace=wrap;html=1;align=center;verticalAlign=middle;fontFamily=Helvetica;fontSize=18;fontColor=default;fillColor=none;gradientColor=none;" parent="1" vertex="1">
          <mxGeometry x="320" y="440" width="200" height="40" as="geometry" />
        </mxCell>
        <mxCell id="PMYmBUmIUMcdazAJRNt9-48" value="Fosfoglukoisomeras" style="text;html=1;align=center;verticalAlign=middle;whiteSpace=wrap;rounded=1;fontFamily=Helvetica;fontSize=18;labelBackgroundColor=none;strokeColor=light-dark(#7EA6E0,#5C79A3);fillColor=#dae8fc;glass=0;shadow=0;" parent="1" vertex="1">
          <mxGeometry x="180" y="360" width="180" height="40" as="geometry" />
        </mxCell>
        <mxCell id="PMYmBUmIUMcdazAJRNt9-49" value="" style="rounded=1;whiteSpace=wrap;html=1;align=center;verticalAlign=middle;fontFamily=Helvetica;fontSize=18;fillColor=#dae8fc;strokeColor=#7EA6E0;" parent="1" vertex="1">
          <mxGeometry x="680" y="40" width="40" height="40" as="geometry" />
        </mxCell>
        <mxCell id="PMYmBUmIUMcdazAJRNt9-50" value="Enzym" style="text;html=1;align=center;verticalAlign=middle;resizable=0;points=[];autosize=1;strokeColor=none;fillColor=none;fontFamily=Helvetica;fontSize=18;fontColor=default;" parent="1" vertex="1">
          <mxGeometry x="720" y="40" width="80" height="40" as="geometry" />
        </mxCell>
        <mxCell id="PMYmBUmIUMcdazAJRNt9-57" value="&lt;span&gt;&lt;i style=&quot;forced-color-adjust: none; color: rgb(0, 0, 0); font-family: Helvetica; font-variant-ligatures: normal; font-variant-caps: normal; font-weight: 400; letter-spacing: normal; orphans: 2; text-indent: 0px; text-transform: none; widows: 2; word-spacing: 0px; -webkit-text-stroke-width: 0px; white-space: normal; text-decoration-thickness: initial; text-decoration-style: initial; text-decoration-color: initial; text-align: center; font-size: 16px; background-color: light-dark(#ffffff, var(--ge-dark-color, #121212));&quot;&gt;Lever och pankreas anv채nder ist채llet glukokinas. Detta h채mmas av GKRP.&lt;/i&gt;&lt;br&gt;&lt;/span&gt;" style="rounded=1;whiteSpace=wrap;html=1;align=center;verticalAlign=middle;fontFamily=Helvetica;fontSize=18;fontColor=default;fillColor=none;gradientColor=none;" parent="1" vertex="1">
          <mxGeometry x="590" y="200" width="200" height="120" as="geometry" />
        </mxCell>
        <mxCell id="PMYmBUmIUMcdazAJRNt9-58" value="&lt;i&gt;&lt;font style=&quot;font-size: 16px;&quot;&gt;Glukos-6-fosfat h채mmar hexokinas.&lt;/font&gt;&lt;/i&gt;" style="rounded=1;whiteSpace=wrap;html=1;align=center;verticalAlign=middle;fontFamily=Helvetica;fontSize=18;fontColor=default;fillColor=none;gradientColor=none;" parent="1" vertex="1">
          <mxGeometry x="590" y="110" width="200" height="60" as="geometry" />
        </mxCell>
        <mxCell id="PMYmBUmIUMcdazAJRNt9-61" value="" style="endArrow=none;html=1;rounded=0;fontFamily=Helvetica;fontSize=18;fontColor=default;exitX=1;exitY=0.5;exitDx=0;exitDy=0;curved=1;" parent="1" source="PMYmBUmIUMcdazAJRNt9-12" edge="1">
          <mxGeometry width="50" height="50" relative="1" as="geometry">
            <mxPoint x="290" y="150" as="sourcePoint" />
            <mxPoint x="420" y="240" as="targetPoint" />
            <Array as="points">
              <mxPoint x="400" y="220" />
            </Array>
          </mxGeometry>
        </mxCell>
        <mxCell id="3_5fwed-tH6MVzw5I9Ar-1" value="" style="endArrow=none;html=1;rounded=0;fontFamily=Helvetica;fontSize=18;fontColor=default;exitX=1;exitY=0.5;exitDx=0;exitDy=0;curved=1;" parent="1" edge="1">
          <mxGeometry width="50" height="50" relative="1" as="geometry">
            <mxPoint x="360" y="380" as="sourcePoint" />
            <mxPoint x="420" y="400" as="targetPoint" />
            <Array as="points">
              <mxPoint x="400" y="380" />
            </Array>
          </mxGeometry>
        </mxCell>
        <mxCell id="iTjG5jvQeZHjuNz00d8z-1" value="&lt;font style=&quot;font-size: 18px;&quot;&gt;1.&lt;/font&gt;" style="ellipse;whiteSpace=wrap;html=1;aspect=fixed;" vertex="1" parent="1">
          <mxGeometry x="160" y="40" width="40" height="40" as="geometry" />
        </mxCell>
        <mxCell id="iTjG5jvQeZHjuNz00d8z-2" value="&lt;font style=&quot;font-size: 18px;&quot;&gt;2.&lt;/font&gt;" style="ellipse;whiteSpace=wrap;html=1;aspect=fixed;" vertex="1" parent="1">
          <mxGeometry x="160" y="280" width="40" height="40" as="geometry" />
        </mxCell>
      </root>
    </mxGraphModel>
  </diagram>
</mxfile>
